# xmcd
#
# Track frame offsets:
#	150
#	19960
#	37662
#	65395
#	84747
#	114430
#	133887
#	155865
#	171930
#	192390
#
# Disc length: 2780 seconds
#
# Revision: 1
# Processed by: cddbd v1.5.2PL0 Copyright (c) Steve Scherf et al.
# Submitted via: audiograbber 1.83.01
#
DISCID=880ada0a
DTITLE=Various Artist - Roots - Ruf Records Catalog 1996
DYEAR=1996
DGENRE=Blues
TTITLE0=Luther Allison - Watching You
TTITLE1=Joanna Connor - Howlin'
TTITLE2=Sugar Blue - Miss You
TTITLE3=Bernard Allison - Too Many Women
TTITLE4=Holmes Brothers - Don't Spare My Sword
TTITLE5=Irek Dudek - Kameralay Blues
TTITLE6=Luther Allison - I Wanna Know
TTITLE7=Friend and Fellow - The Wind Cries Mary
TTITLE8=Bernard Allison - Feel My Groove
TTITLE9=Joanna Connor - Pea Vine Blues
EXTD=
EXTT0=
EXTT1=
EXTT2=
EXTT3=
EXTT4=
EXTT5=
EXTT6=
EXTT7=
EXTT8=
EXTT9=
PLAYORDER=
